# xmcd CD database file
#
# Track frame offsets:
#	182
#	13342
#	32757
#	46325
#	58445
#	71435
#	85057
#	102462
#	118422
#	132680
#	149235
#	168390
#	190580
#	211457
#	227120
#	240635
#	264192
#	275792
#
# Disc length: 3990 seconds
#
# Revision: 0
# Processed by: cddbd v1.5.1PL2 Copyright (c) Steve Scherf et al.
# Submitted via: CDex 1.51
#
DISCID=1e0f9412
DTITLE=Various Artist - Standards Compilation
DYEAR=2001
DGENRE=Jazz
TTITLE0=In The Mood - Glenn Miller
TTITLE1=La Mer - Django Reinhardt
TTITLE2=Body and Soul - Coleman Hawkins
TTITLE3=Saint Louis Blues - Louis Armstrong
TTITLE4=Georgia On My Mind - Benny Carter
TTITLE5=Sweet Georgia Brown - Oscar Peterson
TTITLE6=Moonglow - Don Byas
TTITLE7=The Man I Love - Roy Elridge
TTITLE8=Chicago - Earl Hines
TTITLE9=Caravan - Cootie Williams
TTITLE10=Laura - Gerry Mulligan
TTITLE11=Flying Home - Lionel Hampton
TTITLE12=Take the A Train - Duke Ellington
TTITLE13=Les Feuilles Mortes - James Moody
TTITLE14=Night And Day - Zoot Sims
TTITLE15=Round About Midnight - Thelonious Monk
TTITLE16=Just One Of Those Things - Mary Lou Williams
TTITLE17=Tea For Two - Stephane Grappelli
EXTD=YEAR: 2001
EXTT0=
EXTT1=
EXTT2=
EXTT3=
EXTT4=
EXTT5=
EXTT6=
EXTT7=
EXTT8=
EXTT9=
EXTT10=
EXTT11=
EXTT12=
EXTT13=
EXTT14=
EXTT15=
EXTT16=
EXTT17=
PLAYORDER=
